
<svg xmlns="http://www.w3.org/2000/svg" version="1.1" xmlns:xlink="http://www.w3.org/1999/xlink" preserveAspectRatio="none" x="0px" y="0px" width="120px" height="120px" viewBox="0 0 120 120">
<defs>
<g id="Layer0_0_FILL">
<path fill="#FFFFFF" stroke="none" d="
M 54.45 119.75
Q 57.2 120 60 120 62.8 120 65.55 119.75 74.75 118.9 83.35 115.25
L 36.65 115.25
Q 45.25 118.9 54.45 119.75
M 60 0
Q 56.041796875 0 52.2 0.5
L 67.8 0.5
Q 63.958203125 0 60 0 Z"/>
</g>

<g id="logo_0_Layer0_0_FILL">
<path fill="#FFFFFF" stroke="none" d="
M 115.3 36.15
Q 110.75 25.4 102.45 17.1 94.15 8.8 83.35 4.25 75.8 1.05 67.8 0
L 52.2 0
Q 44.2 1.05 36.65 4.25 25.9 8.8 17.55 17.1 9.25 25.4 4.7 36.15 0 47.3 0 59.5 0 71.7 4.7 82.85 9.25 93.6 17.55 101.9 25.9 110.2 36.65 114.75
L 83.35 114.75
Q 94.15 110.2 102.45 101.9 110.75 93.6 115.3 82.85 120 71.7 120 59.5 120 47.3 115.3 36.15
M 97.15 22.4
Q 104.4 29.65 108.4 39.1 112.5 48.85 112.5 59.5 112.5 70.2 108.4 79.95 104.4 89.35 97.15 96.65 89.85 103.9 80.45 107.9 70.7 112 60 112 49.35 112 39.6 107.9 30.15 103.9 22.9 96.65 15.6 89.35 11.65 79.95 7.5 70.2 7.5 59.5 7.5 48.85 11.65 39.1 15.6 29.65 22.9 22.4 30.15 15.1 39.6 11.15 49.35 7 60 7 70.7 7 80.45 11.15 89.85 15.1 97.15 22.4
M 108.4 39.1
Q 104.4 29.65 97.15 22.4 89.85 15.1 80.45 11.15 70.7 7 60 7 49.35 7 39.6 11.15 30.15 15.1 22.9 22.4 15.6 29.65 11.65 39.1 7.5 48.85 7.5 59.5 7.5 70.2 11.65 79.95 15.6 89.35 22.9 96.65 30.15 103.9 39.6 107.9 49.35 112 60 112 70.7 112 80.45 107.9 89.85 103.9 97.15 96.65 104.4 89.35 108.4 79.95 112.5 70.2 112.5 59.5 112.5 48.85 108.4 39.1
M 84.3 21.2
Q 84.6 20.75 85 20.65 85.45 20.45 86.05 20.6 86.55 20.7 87.25 21.15 87.8 21.6 88 21.85 88.35 22.3 88.5 22.7
L 87.6 23.25
Q 87.25 22.45 86.6 22 86.15 21.65 85.85 21.65 85.55 21.65 85.4 21.9 85.2 22.15 85.35 22.4 85.55 22.7 85.95 23.15 86.6 23.95 86.65 24.05 86.85 24.3 86.95 24.85 87 25.25 86.65 25.7 86.4 26.1 85.95 26.3 85.45 26.45 84.9 26.3 84.35 26.2 83.7 25.75 83.15 25.35 82.75 24.85 82.35 24.3 82.25 23.9
L 83.15 23.35
Q 83.3 23.8 83.6 24.2 83.85 24.55 84.3 24.9 84.75 25.2 85.1 25.25 85.4 25.25 85.55 25.05 85.65 24.9 85.6 24.7 85.55 24.5 85.4 24.3
L 84.3 22.9
Q 84.05 22.5 84 22.1 83.95 21.65 84.3 21.2
M 84.2 19.15
L 81 20.3 81.7 24.2 80.4 23.5 79.8 20.7 78.8 21.05 78.1 22.3 77 21.7 79.6 16.75 80.7 17.35 79.5 19.65 82.9 18.5 84.2 19.15
M 108.25 57.8
Q 107.25 60 104.05 61.65 101.7 62.8 99.2 63.1 97.5 65.4 96.4 67.6 95.3 69.75 95.3 70.75 95.3 71.25 95.65 71.25 97.85 71.25 101.95 68.4 105.9 65.55 108.3 62.4
L 108.85 62.4
Q 106.45 65.7 102.3 68.65 98.05 71.75 95.65 71.75 94.7 71.75 94.25 70.65 93.95 69.9 93.95 69.05 93.95 67.45 94.9 65.4 92.65 68.05 90.65 69.75 88.4 71.65 87.3 71.65 86.75 71.65 86.35 71.2 86 70.75 86 70 86 68.8 87.4 66.6 88.4 65 90.6 62.15 91.9 60.5 92.65 59.15 93.4 57.75 93.4 57 93.4 56.2 92.65 56.2 92.3 56.2 91.75 56.45 89.65 57.6 85.35 63.6 83.05 66.8 79.6 71.9 79.7 71.55 78.7 71.5 77.75 71.4 77.2 71.65 81.9 64.65 83.5 62.15 86.1 58.1 86.1 56.75 86.1 56.2 85.9 56.2 85.5 56.2 84 57.8 82.4 59.5 80.1 62.4
L 80.15 62.4
Q 77.45 66.1 74.6 68.65 71.15 71.65 68.7 71.65 68.15 71.65 67.8 71.2 67.45 70.75 67.45 70 67.45 68.8 69.05 66.3 69.95 64.95 72.65 61.4 74.65 58.8 77.1 55.55 77.3 56.25 78.2 56 79.1 55.8 79.85 54.9 78.75 56.65 76.95 59.1 74.9 61.9 73.95 63.2 70.65 67.55 70.15 68.25 68.55 70.5 68.55 71 68.55 71.15 68.65 71.15 70.9 71.15 74.15 68.35 77 65.95 79.5 62.4
L 79.55 62.4
Q 84.5 56 85.75 55.75 85.95 55.7 86.2 55.7 86.95 55.7 87.45 56.25 87.9 56.8 87.9 57.7 87.9 58.75 87 60.3 89.75 56.9 91.5 56 92.3 55.7 92.8 55.7 93.75 55.7 94.35 56.3 94.95 56.9 94.95 57.9 94.95 60.1 92.6 63.2 89.05 67.85 88.75 68.25 87.1 70.5 87.1 71 87.1 71.15 87.25 71.15 88.5 71.15 91.3 68.55 94.15 65.9 96.6 62.4
L 96.65 62.4
Q 98.7 59.5 101.3 57.65 104.15 55.6 106.7 55.6 109.2 55.6 108.25 57.8
M 81.65 50.05
Q 81.75 50.55 81.45 51.2 81.15 51.85 80.6 52.25 80.1 52.65 79.6 52.6 79.15 52.6 79 52.05 78.85 51.55 79.15 50.9 79.45 50.25 80 49.85 80.5 49.45 80.95 49.5 81.5 49.55 81.65 50.05
M 93.05 75.55
L 93.15 75.35 93.65 75.35
Q 93.4 75.95 93.15 76.3 88.95 85.6 80.5 91.5 71.85 97.5 61.8 97.85 52.3 98.2 43.95 93.9 35.75 89.65 30.35 81.75 36.45 88.3 44.15 91.75 52.2 95.4 60.8 95.05 66.2 94.85 71.3 93.2 76.45 91.55 80.9 88.6 85.4 85.65 89.65 80.2 87.3 81.7 84.15 81.7 80.65 81.7 74.9 77.8 68.05 73.1 65.75 72.35 64.7 75.15 62.35 76.85 60.3 78.35 57.8 78.6 55.45 78.85 53.85 77.9 52.15 76.9 52.15 75.1 52.15 73.3 54.55 72.1 56.9 70.9 60.4 70.9 62 70.9 63.4 71.1 64.1 68.85 64.65 64.75 65.4 59.25 65.6 58.15 64.55 59.75 62.45 62.4 59.8 66.1 56.9 68.65 53.45 71.65 51.05 71.65 50.5 71.65 50.1 71.2 49.75 70.75 49.75 70 49.75 68.95 51 66.9 48.95 68.95 47.1 70.3 45.2 71.65 44.25 71.65 43.7 71.65 43.3 71.2 42.95 70.75 42.95 70 42.95 68.95 44.3 66.8 42.15 68.95 40.3 70.3 38.4 71.65 37.45 71.65 36.9 71.65 36.55 71.2 36.2 70.75 36.2 70 36.2 68.8 37.8 66.3 38.7 64.95 41.4 61.4 43.4 58.8 45.85 55.55 46 56.2 46.8 56.05 47.6 55.85 48.25 55.1
L 48.65 55.1
Q 46.85 57.7 42.7 63.2 39.4 67.55 38.9 68.25 37.3 70.5 37.3 71 37.3 71.15 37.45 71.15 38.55 71.15 41.3 68.9 44.1 66.6 46.45 63.65
L 48.2 61.4
Q 50.2 58.8 52.6 55.55 52.75 56.2 53.6 56.05 54.4 55.9 55.05 55.1
L 55.45 55.1
Q 54.3 56.7 49.45 63.2 45.75 68.15 45.7 68.25 44.05 70.5 44.05 71 44.05 71.15 44.2 71.15 45.4 71.15 48.25 68.8 51.1 66.4 53.4 63.45
L 54.95 61.4
Q 56.95 58.8 59.4 55.55 59.6 56.25 60.5 56 61.4 55.8 62.15 54.9 61.1 56.65 59.3 59.1 58.25 60.5 56.25 63.2 53 67.55 52.45 68.25 50.85 70.5 50.85 71 50.85 71.15 51 71.15 53.25 71.15 56.5 68.35 59.35 65.95 61.85 62.4 65 58.4 66.15 56.5 66.4 56 66.65 54.6 66.85 53.6 67.4 53.4
L 67.7 53.35
Q 68.1 53.35 68.3 53.65 68.55 53.95 68.5 54.35 68.45 54.7 67.65 55.4 66.75 56.25 66.45 56.8
L 66.3 57.6
Q 66.1 58.75 66.3 61.85 66.55 66 66.55 67.65 66.55 69.65 66 71.65 68.45 72.25 75.05 76.1 80.7 79.45 84.15 79.45 89.7 79.45 92.15 76.8
L 93.05 75.55
M 83 98.7
Q 83.35 98.55 83.6 98.6 83.9 98.7 84.05 99 84.25 99.25 84.15 99.55 84.1 99.9 83.8 100.05 83.55 100.2 83.2 100.15 82.95 100.05 82.75 99.75 82.55 99.45 82.65 99.2 82.75 98.85 83 98.7
M 85.15 98.3
Q 84.95 98.05 85 97.7 85.1 97.4 85.35 97.2 85.6 97.05 85.95 97.1 86.25 97.15 86.45 97.4 86.65 97.75 86.55 98 86.5 98.35 86.25 98.5 86 98.7 85.65 98.65 85.3 98.55 85.15 98.3
M 87.6 95.6
Q 87.85 95.4 88.15 95.45 88.45 95.45 88.7 95.75 88.9 96 88.85 96.3 88.8 96.65 88.55 96.8 88.3 97.05 88 97 87.65 96.95 87.45 96.7 87.25 96.4 87.3 96.1 87.35 95.8 87.6 95.6
M 96.4 52.7
Q 93.7 42.65 86.65 35.35 79.85 28.3 70.65 25.35 61.3 22.3 51.85 24.2 41.75 26.25 33.65 33.55 40.8 25.3 51.25 22.7 61 20.3 70.95 23.4 80.9 26.45 87.7 33.9 94.95 41.9 96.4 52.7
M 68.75 13.55
Q 69.4 14.05 69.7 14.75 70 15.45 69.85 16.3 69.75 17.1 69.2 17.7 68.75 18.25 67.95 18.55 67.2 18.8 66.35 18.65 65.5 18.5 64.85 18.05 64.2 17.55 63.95 16.85 63.65 16.15 63.8 15.3 63.95 14.5 64.4 13.9 65 13.3 65.65 13.05 66.35 12.8 67.3 12.95 68.15 13.1 68.75 13.55
M 62.3 13.95
Q 62.3 14.4 62.1 14.65 61.95 14.95 61.55 15.15 62.05 15.3 62.3 15.7 62.55 16.05 62.55 16.55 62.55 17.3 61.95 17.7 61.4 18.05 60.25 18.05
L 57.4 18 57.45 12.4 60.2 12.45
Q 61.2 12.45 61.75 12.9 62.35 13.25 62.3 13.95
M 76.25 15.65
Q 76.8 16.3 76.95 17 77.1 17.7 76.85 18.55 76.55 19.35 76 19.8 75.4 20.35 74.6 20.45 73.85 20.6 73 20.3 72.15 20 71.65 19.45 71.15 18.9 70.95 18.1 70.8 17.35 71.05 16.6 71.3 15.8 71.9 15.3 72.45 14.8 73.25 14.65 74.05 14.55 74.85 14.8 75.7 15.1 76.25 15.65
M 45.6 14.55
Q 46.45 14.25 47.2 14.4 47.95 14.55 48.55 15.1 49.1 15.55 49.4 16.35 49.65 17.1 49.45 17.9 49.3 18.65 48.7 19.25 48.2 19.8 47.35 20.05 46.55 20.3 45.7 20.15 44.95 20 44.35 19.5 43.8 19 43.55 18.2 43.3 17.45 43.45 16.7 43.65 15.9 44.2 15.35 44.8 14.8 45.6 14.55
M 42.2 21.6
Q 41.75 22.25 41 22.65 40.2 23.1 39.4 23.05 38.65 23.05 37.95 22.6 37.3 22.2 36.95 21.5 36.55 20.75 36.6 20 36.7 19.15 37.1 18.55 37.55 17.9 38.35 17.5 39.1 17.1 39.9 17.15 40.7 17.15 41.35 17.55 42 17.95 42.4 18.7 42.8 19.5 42.7 20.2 42.7 20.95 42.2 21.6
M 55.15 18.3
L 53.05 16.35 52.4 17.25 52.65 18.65 51.35 18.85 50.55 13.3 51.8 13.1 52.2 15.7 54.25 12.75 55.7 12.55 53.75 15.35 56.65 18.05 55.15 18.3
M 51.65 42.8
Q 51.65 44.7 49.9 47.05 48.15 49.4 44.95 51.8 41.2 54.7 36.45 56.4 31.05 58.3 25.15 58.3 23.15 58.3 21.7 58 19 63.5 19 67.95 19 70.55 20.15 71.95 21.3 73.3 23.45 73.3 28.6 73.3 31.85 69.25 34.6 65.9 34.45 62.45 34.35 59.95 32.05 60.7 29.8 61.45 29.1 64.2
L 28.75 64.2
Q 28.95 62.35 30.55 61.1 32 59.95 33.65 59.95 36.3 59.95 36.7 62.1 37.05 64.15 35.4 66.9 33.65 69.75 30.7 71.65 27.3 73.85 23.45 73.85 19.9 73.85 18.05 72.05 16.15 70.3 16.15 66.95 16.15 62.45 19.25 57.15 17.8 56.4 17 55.3 16.15 54.15 16.15 52.8 16.15 50.3 18.75 48.45 21.55 46.35 26.05 46.35 27.65 46.35 28.85 46.55 32.85 43.5 37.3 41.5 40.9 40 43.45 39.55 44.8 39.2 46.55 39.2 48.95 39.2 50.3 40.15 51.65 41.1 51.65 42.8
M 33.75 20.45
Q 34.4 20.35 35 20.5
L 34.75 21.6
Q 33.9 21.4 33.25 21.9 32.8 22.15 32.6 22.6 32.45 23.05 32.45 23.5 32.55 24 32.85 24.4 33.15 24.85 33.55 25 34 25.2 34.45 25.15 34.95 25.1 35.35 24.8 36 24.3 36.1 23.45
L 37.2 23.55
Q 37.2 24.2 36.85 24.75 36.5 25.3 35.9 25.75 35.25 26.2 34.45 26.35 33.7 26.45 32.95 26.15 32.25 25.85 31.75 25.15 31.3 24.5 31.2 23.7 31.15 22.95 31.5 22.25 31.85 21.5 32.55 21.05 33.1 20.6 33.75 20.45
M 35.2 98.2
L 33.05 96.75 31.95 97.45 30.85 96.7 36.05 93.5 37.1 94.2 36.05 100.25 34.95 99.5 35.2 98.2
M 62.95 52.25
Q 62.4 52.65 61.95 52.6 61.45 52.6 61.3 52.05 61.2 51.55 61.45 50.9 61.8 50.25 62.3 49.85 62.85 49.45 63.3 49.5 63.8 49.55 63.95 50.05 64.1 50.55 63.75 51.2 63.5 51.85 62.95 52.25
M 43.35 97.6
L 44.5 98.15 42.15 103.2 41.2 102.75 40.1 98.5 38.65 101.55 37.5 101 39.9 95.95 40.85 96.4 41.9 100.65 43.35 97.6
M 75.45 97.95
L 79.3 96.15 79.7 97.1 77.05 98.35 77.55 99.45 79.9 98.35 80.35 99.25 78 100.35 78.55 101.55 81.3 100.25 81.75 101.2 77.8 103.05 75.45 97.95
M 74.3 99.45
Q 74.7 99.75 74.9 100.4 75.05 100.95 74.9 101.5 74.8 101.95 74.3 102.4
L 76 103.75 74.7 104.15 73.2 103 73.15 103 72.05 103.35 72.5 104.8 71.25 105.2 69.65 99.85 71.95 99.15
Q 72.65 98.9 73.25 99 73.95 99.1 74.3 99.45
M 68.9 102.9
Q 69.05 103.75 68.75 104.45 68.4 105.2 67.8 105.6 67.2 106.05 66.3 106.2 65.4 106.35 64.65 106.05 63.95 105.8 63.45 105.15 62.95 104.55 62.85 103.75 62.75 102.95 63.05 102.25 63.35 101.5 64 101.05 64.65 100.6 65.5 100.45 66.35 100.35 67.1 100.6 67.8 100.9 68.3 101.5 68.8 102.1 68.9 102.9
M 61.35 101.05
L 61.15 106.65 59.95 106.6 60.05 103.25 58.3 105.95 57.7 105.9 56.2 103.15 56.05 106.45 54.85 106.4 55.05 100.8 56.15 100.85 58.1 104.4 60.3 101 61.35 101.05
M 48.35 99.35
Q 49.3 99.6 49.8 100.15 50.4 100.7 50.6 101.35 50.8 102.05 50.55 102.9 50.35 103.7 49.8 104.2 49.25 104.7 48.45 104.85 47.7 105 46.85 104.75
L 44.4 104.05 45.9 98.65 48.35 99.35
M 48 100.35
L 46.85 100.05 45.9 103.35 47.05 103.7
Q 47.85 103.9 48.45 103.6 49.1 103.3 49.3 102.55 49.5 101.7 49.15 101.15 48.8 100.6 48 100.35
M 67.5 104.05
Q 67.7 103.65 67.6 103.1 67.55 102.55 67.25 102.2 67.05 101.85 66.55 101.65 66.15 101.5 65.65 101.55 65.15 101.65 64.8 101.9 64.45 102.15 64.25 102.6 64.1 103.05 64.15 103.55 64.2 104.1 64.5 104.45 64.75 104.8 65.2 105 65.7 105.2 66.15 105.1 66.6 105.05 67 104.75 67.35 104.45 67.5 104.05
M 73.55 101.55
Q 73.75 101.2 73.6 100.75 73.5 100.3 73.1 100.15 72.8 100 72.2 100.15
L 71.2 100.45 71.75 102.35 72.75 102.05
Q 73.35 101.85 73.55 101.55
M 35.4 97.15
L 35.85 94.9 33.95 96.15 35.4 97.15
M 28.25 47
Q 26.9 46.9 26.25 46.9 21.9 46.9 19.15 49 16.75 50.8 16.75 53.1 16.75 54.25 17.45 55.2 18.2 56.15 19.5 56.75 22.6 51.6 28.25 47
M 50.3 41.95
Q 50.3 39.8 46.95 39.8 43.65 39.8 39.4 41.45 34.8 43.2 30.5 46.85 33.65 47.6 36.1 49.15 38.55 50.65 39.85 52.7
L 39.6 52.95
Q 38.25 50.85 35.7 49.35 33.2 47.9 30 47.25 24.9 51.85 21.9 57.55 23.7 57.9 25.2 57.9 30 57.9 35.2 55.7 39.65 53.8 43.6 50.65 48.5 46.7 49.85 43.6 50.3 42.7 50.3 41.95
M 40.5 21.7
Q 40.95 21.45 41.2 21.05 41.45 20.65 41.45 20.2 41.45 19.75 41.25 19.3 40.95 18.8 40.6 18.55 40.2 18.3 39.75 18.3 39.3 18.25 38.85 18.5 38.4 18.7 38.15 19.1 37.95 19.45 37.9 19.95 37.9 20.4 38.1 20.9 38.35 21.35 38.75 21.6 39.05 21.85 39.6 21.9 40.1 21.9 40.5 21.7
M 46.85 15.55
Q 46.4 15.45 45.9 15.6 45.4 15.75 45.15 16.05 44.8 16.45 44.75 16.85 44.65 17.3 44.8 17.8 44.95 18.3 45.3 18.65 45.6 18.95 46.1 19.05 46.6 19.15 47 19 47.5 18.85 47.8 18.5 48.1 18.15 48.2 17.7 48.3 17.3 48.15 16.75 48 16.25 47.65 15.95 47.35 15.65 46.85 15.55
M 72.3 17
Q 72.1 17.5 72.2 17.95 72.3 18.45 72.6 18.75 72.9 19.1 73.35 19.25 73.85 19.4 74.3 19.35 74.8 19.2 75.1 18.95 75.45 18.6 75.6 18.1 75.75 17.6 75.7 17.15 75.6 16.75 75.3 16.35 74.95 16 74.5 15.85 74.05 15.7 73.6 15.8 73.15 15.9 72.8 16.2 72.4 16.55 72.3 17
M 60.95 16.95
Q 61.25 16.75 61.25 16.4 61.25 15.7 60.2 15.7
L 58.7 15.65 58.7 17.05 60.2 17.1
Q 60.7 17.1 60.95 16.95
M 61 14.1
Q 61 13.75 60.75 13.6 60.5 13.45 60.05 13.45
L 58.75 13.4 58.7 14.75 60 14.75
Q 60.5 14.75 60.75 14.6 61 14.45 61 14.1
M 67.95 14.4
Q 67.6 14.1 67.1 14.05 66.6 13.95 66.2 14.1 65.8 14.3 65.45 14.65 65.15 15 65.1 15.55 65 16.05 65.15 16.5 65.35 16.9 65.7 17.2 66 17.45 66.55 17.6 66.95 17.65 67.45 17.5 67.9 17.35 68.2 16.95 68.45 16.6 68.55 16.1 68.65 15.55 68.45 15.15 68.3 14.7 67.95 14.4
M 60.45 71.4
Q 57.55 71.4 55.55 72.5 53.5 73.55 53.35 75.15 53.2 76.25 53.7 77 54.35 78 55.9 78 58.3 78 60.2 76.35 62.15 74.65 63.2 71.65 61.2 71.4 60.45 71.4
M 103.85 61.2
Q 106.15 59.95 107.05 57.95 107.9 56 106.7 56 105.75 56 104.2 57.3 102.65 58.6 100.8 60.95 100.35 61.45 99.5 62.6 101.7 62.3 103.85 61.2 Z"/>

<path fill="#000000" stroke="none" d="
M 49.8 100.15
Q 49.3 99.6 48.35 99.35
L 45.9 98.65 44.4 104.05 46.85 104.75
Q 47.7 105 48.45 104.85 49.25 104.7 49.8 104.2 50.35 103.7 50.55 102.9 50.8 102.05 50.6 101.35 50.4 100.7 49.8 100.15
M 46.85 100.05
L 48 100.35
Q 48.8 100.6 49.15 101.15 49.5 101.7 49.3 102.55 49.1 103.3 48.45 103.6 47.85 103.9 47.05 103.7
L 45.9 103.35 46.85 100.05
M 61.15 106.65
L 61.35 101.05 60.3 101 58.1 104.4 56.15 100.85 55.05 100.8 54.85 106.4 56.05 106.45 56.2 103.15 57.7 105.9 58.3 105.95 60.05 103.25 59.95 106.6 61.15 106.65
M 68.75 104.45
Q 69.05 103.75 68.9 102.9 68.8 102.1 68.3 101.5 67.8 100.9 67.1 100.6 66.35 100.35 65.5 100.45 64.65 100.6 64 101.05 63.35 101.5 63.05 102.25 62.75 102.95 62.85 103.75 62.95 104.55 63.45 105.15 63.95 105.8 64.65 106.05 65.4 106.35 66.3 106.2 67.2 106.05 67.8 105.6 68.4 105.2 68.75 104.45
M 67.6 103.1
Q 67.7 103.65 67.5 104.05 67.35 104.45 67 104.75 66.6 105.05 66.15 105.1 65.7 105.2 65.2 105 64.75 104.8 64.5 104.45 64.2 104.1 64.15 103.55 64.1 103.05 64.25 102.6 64.45 102.15 64.8 101.9 65.15 101.65 65.65 101.55 66.15 101.5 66.55 101.65 67.05 101.85 67.25 102.2 67.55 102.55 67.6 103.1
M 74.9 100.4
Q 74.7 99.75 74.3 99.45 73.95 99.1 73.25 99 72.65 98.9 71.95 99.15
L 69.65 99.85 71.25 105.2 72.5 104.8 72.05 103.35 73.15 103 73.2 103 74.7 104.15 76 103.75 74.3 102.4
Q 74.8 101.95 74.9 101.5 75.05 100.95 74.9 100.4
M 73.6 100.75
Q 73.75 101.2 73.55 101.55 73.35 101.85 72.75 102.05
L 71.75 102.35 71.2 100.45 72.2 100.15
Q 72.8 100 73.1 100.15 73.5 100.3 73.6 100.75
M 79.3 96.15
L 75.45 97.95 77.8 103.05 81.75 101.2 81.3 100.25 78.55 101.55 78 100.35 80.35 99.25 79.9 98.35 77.55 99.45 77.05 98.35 79.7 97.1 79.3 96.15
M 44.5 98.15
L 43.35 97.6 41.9 100.65 40.85 96.4 39.9 95.95 37.5 101 38.65 101.55 40.1 98.5 41.2 102.75 42.15 103.2 44.5 98.15
M 61.95 52.6
Q 62.4 52.65 62.95 52.25 63.5 51.85 63.75 51.2 64.1 50.55 63.95 50.05 63.8 49.55 63.3 49.5 62.85 49.45 62.3 49.85 61.8 50.25 61.45 50.9 61.2 51.55 61.3 52.05 61.45 52.6 61.95 52.6
M 33.05 96.75
L 35.2 98.2 34.95 99.5 36.05 100.25 37.1 94.2 36.05 93.5 30.85 96.7 31.95 97.45 33.05 96.75
M 35.85 94.9
L 35.4 97.15 33.95 96.15 35.85 94.9
M 35 20.5
Q 34.4 20.35 33.75 20.45 33.1 20.6 32.55 21.05 31.85 21.5 31.5 22.25 31.15 22.95 31.2 23.7 31.3 24.5 31.75 25.15 32.25 25.85 32.95 26.15 33.7 26.45 34.45 26.35 35.25 26.2 35.9 25.75 36.5 25.3 36.85 24.75 37.2 24.2 37.2 23.55
L 36.1 23.45
Q 36 24.3 35.35 24.8 34.95 25.1 34.45 25.15 34 25.2 33.55 25 33.15 24.85 32.85 24.4 32.55 24 32.45 23.5 32.45 23.05 32.6 22.6 32.8 22.15 33.25 21.9 33.9 21.4 34.75 21.6
L 35 20.5
M 49.9 47.05
Q 51.65 44.7 51.65 42.8 51.65 41.1 50.3 40.15 48.95 39.2 46.55 39.2 44.8 39.2 43.45 39.55 40.9 40 37.3 41.5 32.85 43.5 28.85 46.55 27.65 46.35 26.05 46.35 21.55 46.35 18.75 48.45 16.15 50.3 16.15 52.8 16.15 54.15 17 55.3 17.8 56.4 19.25 57.15 16.15 62.45 16.15 66.95 16.15 70.3 18.05 72.05 19.9 73.85 23.45 73.85 27.3 73.85 30.7 71.65 33.65 69.75 35.4 66.9 37.05 64.15 36.7 62.1 36.3 59.95 33.65 59.95 32 59.95 30.55 61.1 28.95 62.35 28.75 64.2
L 29.1 64.2
Q 29.8 61.45 32.05 60.7 34.35 59.95 34.45 62.45 34.6 65.9 31.85 69.25 28.6 73.3 23.45 73.3 21.3 73.3 20.15 71.95 19 70.55 19 67.95 19 63.5 21.7 58 23.15 58.3 25.15 58.3 31.05 58.3 36.45 56.4 41.2 54.7 44.95 51.8 48.15 49.4 49.9 47.05
M 46.95 39.8
Q 50.3 39.8 50.3 41.95 50.3 42.7 49.85 43.6 48.5 46.7 43.6 50.65 39.65 53.8 35.2 55.7 30 57.9 25.2 57.9 23.7 57.9 21.9 57.55 24.9 51.85 30 47.25 33.2 47.9 35.7 49.35 38.25 50.85 39.6 52.95
L 39.85 52.7
Q 38.55 50.65 36.1 49.15 33.65 47.6 30.5 46.85 34.8 43.2 39.4 41.45 43.65 39.8 46.95 39.8
M 26.25 46.9
Q 26.9 46.9 28.25 47 22.6 51.6 19.5 56.75 18.2 56.15 17.45 55.2 16.75 54.25 16.75 53.1 16.75 50.8 19.15 49 21.9 46.9 26.25 46.9
M 53.05 16.35
L 55.15 18.3 56.65 18.05 53.75 15.35 55.7 12.55 54.25 12.75 52.2 15.7 51.8 13.1 50.55 13.3 51.35 18.85 52.65 18.65 52.4 17.25 53.05 16.35
M 41 22.65
Q 41.75 22.25 42.2 21.6 42.7 20.95 42.7 20.2 42.8 19.5 42.4 18.7 42 17.95 41.35 17.55 40.7 17.15 39.9 17.15 39.1 17.1 38.35 17.5 37.55 17.9 37.1 18.55 36.7 19.15 36.6 20 36.55 20.75 36.95 21.5 37.3 22.2 37.95 22.6 38.65 23.05 39.4 23.05 40.2 23.1 41 22.65
M 41.2 21.05
Q 40.95 21.45 40.5 21.7 40.1 21.9 39.6 21.9 39.05 21.85 38.75 21.6 38.35 21.35 38.1 20.9 37.9 20.4 37.9 19.95 37.95 19.45 38.15 19.1 38.4 18.7 38.85 18.5 39.3 18.25 39.75 18.3 40.2 18.3 40.6 18.55 40.95 18.8 41.25 19.3 41.45 19.75 41.45 20.2 41.45 20.65 41.2 21.05
M 47.2 14.4
Q 46.45 14.25 45.6 14.55 44.8 14.8 44.2 15.35 43.65 15.9 43.45 16.7 43.3 17.45 43.55 18.2 43.8 19 44.35 19.5 44.95 20 45.7 20.15 46.55 20.3 47.35 20.05 48.2 19.8 48.7 19.25 49.3 18.65 49.45 17.9 49.65 17.1 49.4 16.35 49.1 15.55 48.55 15.1 47.95 14.55 47.2 14.4
M 45.9 15.6
Q 46.4 15.45 46.85 15.55 47.35 15.65 47.65 15.95 48 16.25 48.15 16.75 48.3 17.3 48.2 17.7 48.1 18.15 47.8 18.5 47.5 18.85 47 19 46.6 19.15 46.1 19.05 45.6 18.95 45.3 18.65 44.95 18.3 44.8 17.8 44.65 17.3 44.75 16.85 44.8 16.45 45.15 16.05 45.4 15.75 45.9 15.6
M 76.95 17
Q 76.8 16.3 76.25 15.65 75.7 15.1 74.85 14.8 74.05 14.55 73.25 14.65 72.45 14.8 71.9 15.3 71.3 15.8 71.05 16.6 70.8 17.35 70.95 18.1 71.15 18.9 71.65 19.45 72.15 20 73 20.3 73.85 20.6 74.6 20.45 75.4 20.35 76 19.8 76.55 19.35 76.85 18.55 77.1 17.7 76.95 17
M 72.2 17.95
Q 72.1 17.5 72.3 17 72.4 16.55 72.8 16.2 73.15 15.9 73.6 15.8 74.05 15.7 74.5 15.85 74.95 16 75.3 16.35 75.6 16.75 75.7 17.15 75.75 17.6 75.6 18.1 75.45 18.6 75.1 18.95 74.8 19.2 74.3 19.35 73.85 19.4 73.35 19.25 72.9 19.1 72.6 18.75 72.3 18.45 72.2 17.95
M 62.1 14.65
Q 62.3 14.4 62.3 13.95 62.35 13.25 61.75 12.9 61.2 12.45 60.2 12.45
L 57.45 12.4 57.4 18 60.25 18.05
Q 61.4 18.05 61.95 17.7 62.55 17.3 62.55 16.55 62.55 16.05 62.3 15.7 62.05 15.3 61.55 15.15 61.95 14.95 62.1 14.65
M 60.75 13.6
Q 61 13.75 61 14.1 61 14.45 60.75 14.6 60.5 14.75 60 14.75
L 58.7 14.75 58.75 13.4 60.05 13.45
Q 60.5 13.45 60.75 13.6
M 61.25 16.4
Q 61.25 16.75 60.95 16.95 60.7 17.1 60.2 17.1
L 58.7 17.05 58.7 15.65 60.2 15.7
Q 61.25 15.7 61.25 16.4
M 69.7 14.75
Q 69.4 14.05 68.75 13.55 68.15 13.1 67.3 12.95 66.35 12.8 65.65 13.05 65 13.3 64.4 13.9 63.95 14.5 63.8 15.3 63.65 16.15 63.95 16.85 64.2 17.55 64.85 18.05 65.5 18.5 66.35 18.65 67.2 18.8 67.95 18.55 68.75 18.25 69.2 17.7 69.75 17.1 69.85 16.3 70 15.45 69.7 14.75
M 67.1 14.05
Q 67.6 14.1 67.95 14.4 68.3 14.7 68.45 15.15 68.65 15.55 68.55 16.1 68.45 16.6 68.2 16.95 67.9 17.35 67.45 17.5 66.95 17.65 66.55 17.6 66 17.45 65.7 17.2 65.35 16.9 65.15 16.5 65 16.05 65.1 15.55 65.15 15 65.45 14.65 65.8 14.3 66.2 14.1 66.6 13.95 67.1 14.05
M 86.65 35.35
Q 93.7 42.65 96.4 52.7 94.95 41.9 87.7 33.9 80.9 26.45 70.95 23.4 61 20.3 51.25 22.7 40.8 25.3 33.65 33.55 41.75 26.25 51.85 24.2 61.3 22.3 70.65 25.35 79.85 28.3 86.65 35.35
M 88.15 95.45
Q 87.85 95.4 87.6 95.6 87.35 95.8 87.3 96.1 87.25 96.4 87.45 96.7 87.65 96.95 88 97 88.3 97.05 88.55 96.8 88.8 96.65 88.85 96.3 88.9 96 88.7 95.75 88.45 95.45 88.15 95.45
M 85 97.7
Q 84.95 98.05 85.15 98.3 85.3 98.55 85.65 98.65 86 98.7 86.25 98.5 86.5 98.35 86.55 98 86.65 97.75 86.45 97.4 86.25 97.15 85.95 97.1 85.6 97.05 85.35 97.2 85.1 97.4 85 97.7
M 83.6 98.6
Q 83.35 98.55 83 98.7 82.75 98.85 82.65 99.2 82.55 99.45 82.75 99.75 82.95 100.05 83.2 100.15 83.55 100.2 83.8 100.05 84.1 99.9 84.15 99.55 84.25 99.25 84.05 99 83.9 98.7 83.6 98.6
M 93.15 75.35
L 93.05 75.55 92.15 76.8
Q 89.7 79.45 84.15 79.45 80.7 79.45 75.05 76.1 68.45 72.25 66 71.65 66.55 69.65 66.55 67.65 66.55 66 66.3 61.85 66.1 58.75 66.3 57.6
L 66.45 56.8
Q 66.75 56.25 67.65 55.4 68.45 54.7 68.5 54.35 68.55 53.95 68.3 53.65 68.1 53.35 67.7 53.35
L 67.4 53.4
Q 66.85 53.6 66.65 54.6 66.4 56 66.15 56.5 65 58.4 61.85 62.4 59.35 65.95 56.5 68.35 53.25 71.15 51 71.15 50.85 71.15 50.85 71 50.85 70.5 52.45 68.25 53 67.55 56.25 63.2 58.25 60.5 59.3 59.1 61.1 56.65 62.15 54.9 61.4 55.8 60.5 56 59.6 56.25 59.4 55.55 56.95 58.8 54.95 61.4
L 53.4 63.45
Q 51.1 66.4 48.25 68.8 45.4 71.15 44.2 71.15 44.05 71.15 44.05 71 44.05 70.5 45.7 68.25 45.75 68.15 49.45 63.2 54.3 56.7 55.45 55.1
L 55.05 55.1
Q 54.4 55.9 53.6 56.05 52.75 56.2 52.6 55.55 50.2 58.8 48.2 61.4
L 46.45 63.65
Q 44.1 66.6 41.3 68.9 38.55 71.15 37.45 71.15 37.3 71.15 37.3 71 37.3 70.5 38.9 68.25 39.4 67.55 42.7 63.2 46.85 57.7 48.65 55.1
L 48.25 55.1
Q 47.6 55.85 46.8 56.05 46 56.2 45.85 55.55 43.4 58.8 41.4 61.4 38.7 64.95 37.8 66.3 36.2 68.8 36.2 70 36.2 70.75 36.55 71.2 36.9 71.65 37.45 71.65 38.4 71.65 40.3 70.3 42.15 68.95 44.3 66.8 42.95 68.95 42.95 70 42.95 70.75 43.3 71.2 43.7 71.65 44.25 71.65 45.2 71.65 47.1 70.3 48.95 68.95 51 66.9 49.75 68.95 49.75 70 49.75 70.75 50.1 71.2 50.5 71.65 51.05 71.65 53.45 71.65 56.9 68.65 59.8 66.1 62.45 62.4 64.55 59.75 65.6 58.15 65.4 59.25 64.65 64.75 64.1 68.85 63.4 71.1 62 70.9 60.4 70.9 56.9 70.9 54.55 72.1 52.15 73.3 52.15 75.1 52.15 76.9 53.85 77.9 55.45 78.85 57.8 78.6 60.3 78.35 62.35 76.85 64.7 75.15 65.75 72.35 68.05 73.1 74.9 77.8 80.65 81.7 84.15 81.7 87.3 81.7 89.65 80.2 85.4 85.65 80.9 88.6 76.45 91.55 71.3 93.2 66.2 94.85 60.8 95.05 52.2 95.4 44.15 91.75 36.45 88.3 30.35 81.75 35.75 89.65 43.95 93.9 52.3 98.2 61.8 97.85 71.85 97.5 80.5 91.5 88.95 85.6 93.15 76.3 93.4 75.95 93.65 75.35
L 93.15 75.35
M 55.55 72.5
Q 57.55 71.4 60.45 71.4 61.2 71.4 63.2 71.65 62.15 74.65 60.2 76.35 58.3 78 55.9 78 54.35 78 53.7 77 53.2 76.25 53.35 75.15 53.5 73.55 55.55 72.5
M 81.45 51.2
Q 81.75 50.55 81.65 50.05 81.5 49.55 80.95 49.5 80.5 49.45 80 49.85 79.45 50.25 79.15 50.9 78.85 51.55 79 52.05 79.15 52.6 79.6 52.6 80.1 52.65 80.6 52.25 81.15 51.85 81.45 51.2
M 104.05 61.65
Q 107.25 60 108.25 57.8 109.2 55.6 106.7 55.6 104.15 55.6 101.3 57.65 98.7 59.5 96.65 62.4
L 96.6 62.4
Q 94.15 65.9 91.3 68.55 88.5 71.15 87.25 71.15 87.1 71.15 87.1 71 87.1 70.5 88.75 68.25 89.05 67.85 92.6 63.2 94.95 60.1 94.95 57.9 94.95 56.9 94.35 56.3 93.75 55.7 92.8 55.7 92.3 55.7 91.5 56 89.75 56.9 87 60.3 87.9 58.75 87.9 57.7 87.9 56.8 87.45 56.25 86.95 55.7 86.2 55.7 85.95 55.7 85.75 55.75 84.5 56 79.55 62.4
L 79.5 62.4
Q 77 65.95 74.15 68.35 70.9 71.15 68.65 71.15 68.55 71.15 68.55 71 68.55 70.5 70.15 68.25 70.65 67.55 73.95 63.2 74.9 61.9 76.95 59.1 78.75 56.65 79.85 54.9 79.1 55.8 78.2 56 77.3 56.25 77.1 55.55 74.65 58.8 72.65 61.4 69.95 64.95 69.05 66.3 67.45 68.8 67.45 70 67.45 70.75 67.8 71.2 68.15 71.65 68.7 71.65 71.15 71.65 74.6 68.65 77.45 66.1 80.15 62.4
L 80.1 62.4
Q 82.4 59.5 84 57.8 85.5 56.2 85.9 56.2 86.1 56.2 86.1 56.75 86.1 58.1 83.5 62.15 81.9 64.65 77.2 71.65 77.75 71.4 78.7 71.5 79.7 71.55 79.6 71.9 83.05 66.8 85.35 63.6 89.65 57.6 91.75 56.45 92.3 56.2 92.65 56.2 93.4 56.2 93.4 57 93.4 57.75 92.65 59.15 91.9 60.5 90.6 62.15 88.4 65 87.4 66.6 86 68.8 86 70 86 70.75 86.35 71.2 86.75 71.65 87.3 71.65 88.4 71.65 90.65 69.75 92.65 68.05 94.9 65.4 93.95 67.45 93.95 69.05 93.95 69.9 94.25 70.65 94.7 71.75 95.65 71.75 98.05 71.75 102.3 68.65 106.45 65.7 108.85 62.4
L 108.3 62.4
Q 105.9 65.55 101.95 68.4 97.85 71.25 95.65 71.25 95.3 71.25 95.3 70.75 95.3 69.75 96.4 67.6 97.5 65.4 99.2 63.1 101.7 62.8 104.05 61.65
M 107.05 57.95
Q 106.15 59.95 103.85 61.2 101.7 62.3 99.5 62.6 100.35 61.45 100.8 60.95 102.65 58.6 104.2 57.3 105.75 56 106.7 56 107.9 56 107.05 57.95
M 81 20.3
L 84.2 19.15 82.9 18.5 79.5 19.65 80.7 17.35 79.6 16.75 77 21.7 78.1 22.3 78.8 21.05 79.8 20.7 80.4 23.5 81.7 24.2 81 20.3
M 85 20.65
Q 84.6 20.75 84.3 21.2 83.95 21.65 84 22.1 84.05 22.5 84.3 22.9
L 85.4 24.3
Q 85.55 24.5 85.6 24.7 85.65 24.9 85.55 25.05 85.4 25.25 85.1 25.25 84.75 25.2 84.3 24.9 83.85 24.55 83.6 24.2 83.3 23.8 83.15 23.35
L 82.25 23.9
Q 82.35 24.3 82.75 24.85 83.15 25.35 83.7 25.75 84.35 26.2 84.9 26.3 85.45 26.45 85.95 26.3 86.4 26.1 86.65 25.7 87 25.25 86.95 24.85 86.85 24.3 86.65 24.05 86.6 23.95 85.95 23.15 85.55 22.7 85.35 22.4 85.2 22.15 85.4 21.9 85.55 21.65 85.85 21.65 86.15 21.65 86.6 22 87.25 22.45 87.6 23.25
L 88.5 22.7
Q 88.35 22.3 88 21.85 87.8 21.6 87.25 21.15 86.55 20.7 86.05 20.6 85.45 20.45 85 20.65 Z"/>
</g>

<path id="logo_0_Layer0_0_1_STROKES" stroke="#000000" stroke-width="3" stroke-linejoin="miter" stroke-linecap="round" stroke-miterlimit="10" fill="none" d="
M 112.5 59.5
Q 112.5 48.85 108.4 39.1 104.4 29.65 97.15 22.4 89.85 15.1 80.45 11.15 70.7 7 60 7 49.35 7 39.6 11.15 30.15 15.1 22.9 22.4 15.6 29.65 11.65 39.1 7.5 48.85 7.5 59.5 7.5 70.2 11.65 79.95 15.6 89.35 22.9 96.65 30.15 103.9 39.6 107.9 49.35 112 60 112 70.7 112 80.45 107.9 89.85 103.9 97.15 96.65 104.4 89.35 108.4 79.95 112.5 70.2 112.5 59.5 Z"/>
</defs>

<g transform="matrix( 1, 0, 0, 1, 0,0) ">
<use xlink:href="#Layer0_0_FILL"/>
</g>

<g transform="matrix( 1, 0, 0, 1, 0,0.5) ">
<g transform="matrix( 1, 0, 0, 1, 0,0) ">
<use xlink:href="#logo_0_Layer0_0_FILL"/>

<use xlink:href="#logo_0_Layer0_0_1_STROKES"/>
</g>
</g>
</svg>
